<svg width="172" height="51" viewBox="0 0 172 51" fill="none" xmlns="http://www.w3.org/2000/svg">
<rect width="171.611" height="50.7455" rx="8.88043" fill="black"/>
<rect x="0.728118" y="0.728118" width="170.155" height="49.2893" rx="8.15232" stroke="white" stroke-opacity="0.22" stroke-width="1.45624"/>
<path d="M103.428 24.3601V27.2665H101.606V29.1726H103.428V35.649C103.428 37.8604 104.428 38.745 106.945 38.745C107.387 38.745 107.809 38.6923 108.177 38.6292V36.7442C107.861 36.7758 107.661 36.7968 107.314 36.7968C106.187 36.7968 105.692 36.2703 105.692 35.0698V29.1726H108.177V27.2665H105.692V24.3601H103.428Z" fill="white"/>
<path d="M114.589 38.903C117.937 38.903 119.991 36.6599 119.991 32.9426C119.991 29.2463 117.927 26.9927 114.589 26.9927C111.24 26.9927 109.176 29.2463 109.176 32.9426C109.176 36.6599 111.229 38.903 114.589 38.903ZM114.589 36.8916C112.619 36.8916 111.514 35.4489 111.514 32.9426C111.514 30.4573 112.619 29.0041 114.589 29.0041C116.547 29.0041 117.664 30.4573 117.664 32.9426C117.664 35.4384 116.547 36.8916 114.589 36.8916Z" fill="white"/>
<path d="M121.748 38.6818H124.012V31.9106C124.012 30.2994 125.223 29.2147 126.939 29.2147C127.339 29.2147 128.013 29.2884 128.203 29.3516V27.1191C127.961 27.0559 127.529 27.0243 127.192 27.0243C125.697 27.0243 124.422 27.8457 124.096 28.9725H123.928V27.2139H121.748V38.6818Z" fill="white"/>
<path d="M133.825 28.9199C135.499 28.9199 136.594 30.0888 136.647 31.8895H130.855C130.981 30.0993 132.15 28.9199 133.825 28.9199ZM136.636 35.5858C136.215 36.4809 135.278 36.9758 133.909 36.9758C132.098 36.9758 130.929 35.7016 130.855 33.6903V33.5639H138.953V32.7741C138.953 29.1726 137.026 26.9927 133.835 26.9927C130.602 26.9927 128.549 29.32 128.549 32.9847C128.549 36.6494 130.56 38.903 133.846 38.903C136.468 38.903 138.3 37.6393 138.816 35.5858H136.636Z" fill="white"/>
<path d="M88.5803 34.4469C88.7549 37.2629 91.1016 39.0638 94.5943 39.0638C98.3271 39.0638 100.663 37.1756 100.663 34.1631C100.663 31.7946 99.3313 30.4848 96.1005 29.7317L94.3651 29.306C92.3131 28.8258 91.4836 28.1818 91.4836 27.0576C91.4836 25.6387 92.7715 24.7109 94.7034 24.7109C96.5371 24.7109 97.8032 25.6169 98.0324 27.0685H100.412C100.27 24.4162 97.9342 22.5498 94.7362 22.5498C91.2981 22.5498 89.006 24.4162 89.006 27.2213C89.006 29.5352 90.3048 30.9105 93.1535 31.5763L95.1837 32.0675C97.2684 32.5586 98.1852 33.279 98.1852 34.4796C98.1852 35.8767 96.7445 36.8918 94.7798 36.8918C92.6733 36.8918 91.2107 35.9422 91.0034 34.4469H88.5803Z" fill="white"/>
<path d="M65.1268 27.0243C63.5682 27.0243 62.2203 27.8036 61.5253 29.1094H61.3568V27.2139H59.177V42.4939H61.441V36.9442H61.6201C62.2203 38.1553 63.5156 38.8714 65.1478 38.8714C68.0437 38.8714 69.8866 36.5862 69.8866 32.9426C69.8866 29.299 68.0437 27.0243 65.1268 27.0243ZM64.4844 36.8389C62.5889 36.8389 61.3989 35.3436 61.3989 32.9531C61.3989 30.5521 62.5889 29.0568 64.4949 29.0568C66.4115 29.0568 67.5593 30.5205 67.5593 32.9426C67.5593 35.3752 66.4115 36.8389 64.4844 36.8389Z" fill="white"/>
<path d="M77.809 27.0243C76.2504 27.0243 74.9025 27.8036 74.2075 29.1094H74.039V27.2139H71.8592V42.4939H74.1233V36.9442H74.3023C74.9025 38.1553 76.1978 38.8714 77.83 38.8714C80.7259 38.8714 82.5688 36.5862 82.5688 32.9426C82.5688 29.299 80.7259 27.0243 77.809 27.0243ZM77.1666 36.8389C75.2711 36.8389 74.0811 35.3436 74.0811 32.9531C74.0811 30.5521 75.2711 29.0568 77.1771 29.0568C79.0937 29.0568 80.2415 30.5205 80.2415 32.9426C80.2415 35.3752 79.0937 36.8389 77.1666 36.8389Z" fill="white"/>
<path d="M55.1148 38.6818H57.7125L52.026 22.9318H49.3955L43.709 38.6818H46.2194L47.671 34.5015H53.6741L55.1148 38.6818ZM50.5852 25.7915H50.7708L53.0519 32.4495H48.2931L50.5852 25.7915Z" fill="white"/>
<path d="M45.2344 11.0516V18.6495H47.9776C50.2417 18.6495 51.5527 17.2542 51.5527 14.8268C51.5527 12.4364 50.2311 11.0516 47.9776 11.0516H45.2344ZM46.4138 12.1257H47.846C49.4203 12.1257 50.3522 13.1261 50.3522 14.8426C50.3522 16.5855 49.4361 17.5753 47.846 17.5753H46.4138V12.1257Z" fill="white"/>
<path d="M55.5681 18.76C57.2424 18.76 58.2692 17.6385 58.2692 15.7799C58.2692 13.9317 57.2372 12.8049 55.5681 12.8049C53.8937 12.8049 52.8617 13.9317 52.8617 15.7799C52.8617 17.6385 53.8884 18.76 55.5681 18.76ZM55.5681 17.7544C54.5834 17.7544 54.0306 17.033 54.0306 15.7799C54.0306 14.5372 54.5834 13.8106 55.5681 13.8106C56.5474 13.8106 57.1055 14.5372 57.1055 15.7799C57.1055 17.0277 56.5474 17.7544 55.5681 17.7544Z" fill="white"/>
<path d="M67.0127 12.9155H65.8807L64.8592 17.291H64.7697L63.5903 12.9155H62.5056L61.3262 17.291H61.2419L60.2152 12.9155H59.0674L60.647 18.6495H61.8106L62.99 14.4267H63.0795L64.2642 18.6495H65.4384L67.0127 12.9155Z" fill="white"/>
<path d="M68.3164 18.6495H69.4485V15.2954C69.4485 14.4003 69.9802 13.8422 70.8174 13.8422C71.6546 13.8422 72.0548 14.3003 72.0548 15.2217V18.6495H73.1868V14.9374C73.1868 13.5737 72.4813 12.8049 71.2018 12.8049C70.3383 12.8049 69.7696 13.1893 69.4906 13.8264H69.4063V12.9155H68.3164V18.6495Z" fill="white"/>
<path d="M74.9696 18.6495H76.1017V10.6777H74.9696V18.6495Z" fill="white"/>
<path d="M80.3592 18.76C82.0336 18.76 83.0603 17.6385 83.0603 15.7799C83.0603 13.9317 82.0283 12.8049 80.3592 12.8049C78.6848 12.8049 77.6528 13.9317 77.6528 15.7799C77.6528 17.6385 78.6796 18.76 80.3592 18.76ZM80.3592 17.7544C79.3746 17.7544 78.8217 17.033 78.8217 15.7799C78.8217 14.5372 79.3746 13.8106 80.3592 13.8106C81.3386 13.8106 81.8967 14.5372 81.8967 15.7799C81.8967 17.0277 81.3386 17.7544 80.3592 17.7544Z" fill="white"/>
<path d="M86.4333 17.7912C85.8172 17.7912 85.3697 17.4911 85.3697 16.9751C85.3697 16.4696 85.7277 16.2011 86.5175 16.1484L87.9181 16.0589V16.5381C87.9181 17.2489 87.2862 17.7912 86.4333 17.7912ZM86.1437 18.7442C86.8966 18.7442 87.5232 18.4178 87.8654 17.8439H87.9549V18.6495H89.0449V14.7321C89.0449 13.521 88.234 12.8049 86.7966 12.8049C85.496 12.8049 84.5693 13.4368 84.4535 14.4214H85.5487C85.6751 14.016 86.1121 13.7843 86.7439 13.7843C87.5179 13.7843 87.9181 14.1265 87.9181 14.7321V15.227L86.3648 15.3165C85.0011 15.4007 84.2324 15.9957 84.2324 17.0277C84.2324 18.0755 85.038 18.7442 86.1437 18.7442Z" fill="white"/>
<path d="M92.8864 18.7442C93.6762 18.7442 94.3449 18.3704 94.6872 17.7438H94.7767V18.6495H95.8613V10.6777H94.7293V13.8264H94.645C94.3344 13.1946 93.6709 12.8207 92.8864 12.8207C91.4385 12.8207 90.5065 13.9686 90.5065 15.7799C90.5065 17.5964 91.4279 18.7442 92.8864 18.7442ZM93.2076 13.8369C94.1554 13.8369 94.7503 14.5899 94.7503 15.7851C94.7503 16.9856 94.1606 17.728 93.2076 17.728C92.2493 17.728 91.6754 16.9961 91.6754 15.7799C91.6754 14.5741 92.2546 13.8369 93.2076 13.8369Z" fill="white"/>
<path d="M103.202 18.76C104.877 18.76 105.903 17.6385 105.903 15.7799C105.903 13.9317 104.871 12.8049 103.202 12.8049C101.528 12.8049 100.496 13.9317 100.496 15.7799C100.496 17.6385 101.523 18.76 103.202 18.76ZM103.202 17.7544C102.218 17.7544 101.665 17.033 101.665 15.7799C101.665 14.5372 102.218 13.8106 103.202 13.8106C104.182 13.8106 104.74 14.5372 104.74 15.7799C104.74 17.0277 104.182 17.7544 103.202 17.7544Z" fill="white"/>
<path d="M107.402 18.6495H108.534V15.2954C108.534 14.4003 109.066 13.8422 109.903 13.8422C110.74 13.8422 111.14 14.3003 111.14 15.2217V18.6495H112.272V14.9374C112.272 13.5737 111.567 12.8049 110.287 12.8049C109.424 12.8049 108.855 13.1893 108.576 13.8264H108.492V12.9155H107.402V18.6495Z" fill="white"/>
<path d="M117.486 11.4886V12.9418H116.575V13.8949H117.486V17.133C117.486 18.2388 117.986 18.6811 119.245 18.6811C119.466 18.6811 119.676 18.6547 119.861 18.6231V17.6806C119.703 17.6964 119.603 17.707 119.429 17.707C118.865 17.707 118.618 17.4437 118.618 16.8435V13.8949H119.861V12.9418H118.618V11.4886H117.486Z" fill="white"/>
<path d="M121.38 18.6495H122.512V15.3007C122.512 14.4319 123.028 13.8475 123.955 13.8475C124.755 13.8475 125.182 14.3108 125.182 15.227V18.6495H126.314V14.9479C126.314 13.5842 125.561 12.8102 124.339 12.8102C123.476 12.8102 122.87 13.1946 122.591 13.8369H122.502V10.6777H121.38V18.6495Z" fill="white"/>
<path d="M130.397 13.7685C131.235 13.7685 131.782 14.3529 131.809 15.2533H128.913C128.976 14.3582 129.56 13.7685 130.397 13.7685ZM131.803 17.1015C131.593 17.549 131.124 17.7965 130.44 17.7965C129.534 17.7965 128.95 17.1594 128.913 16.1537V16.0905H132.962V15.6956C132.962 13.8949 131.998 12.8049 130.403 12.8049C128.786 12.8049 127.76 13.9686 127.76 15.8009C127.76 17.6333 128.765 18.76 130.408 18.76C131.719 18.76 132.635 18.1282 132.893 17.1015H131.803Z" fill="white"/>
<path d="M31.4246 25.7557C31.4521 23.6232 32.5974 21.6053 34.4142 20.4883C33.2681 18.8513 31.3483 17.8135 29.3509 17.751C27.2206 17.5274 25.1553 19.0257 24.0698 19.0257C22.9632 19.0257 21.2918 17.7732 19.4919 17.8102C17.1459 17.886 14.9588 19.2198 13.8174 21.2709C11.3639 25.5188 13.194 31.7618 15.5443 35.1956C16.7202 36.8769 18.0945 38.7551 19.8927 38.6885C21.6524 38.6155 22.3096 37.5664 24.4336 37.5664C26.538 37.5664 27.1546 38.6885 28.9893 38.6462C30.8775 38.6155 32.0671 36.9573 33.2018 35.26C34.0466 34.0619 34.6968 32.7378 35.1281 31.3367C32.9091 30.3982 31.4272 28.1651 31.4246 25.7557Z" fill="white"/>
<path d="M27.9592 15.4928C28.9887 14.2569 29.4959 12.6683 29.3731 11.0645C27.8002 11.2297 26.3473 11.9814 25.3039 13.1699C24.2835 14.3311 23.7525 15.8917 23.8529 17.4343C25.4264 17.4505 26.9732 16.7191 27.9592 15.4928Z" fill="white"/>
</svg>
