<svg width="56" height="56" viewBox="0 0 56 56" fill="none" xmlns="http://www.w3.org/2000/svg">
<g filter="url(#filter0_f_5447_2309)">
<circle cx="28" cy="28" r="12" fill="url(#paint0_linear_5447_2309)"/>
</g>
<path d="M32.7611 28.1116C32.704 28.0532 32.6358 28.0067 32.5606 27.975C32.4854 27.9432 32.4046 27.9267 32.3229 27.9265C32.2412 27.9263 32.1603 27.9423 32.0849 27.9737C32.0095 28.005 31.9411 28.0511 31.8837 28.1092C31.8263 28.1672 31.781 28.2361 31.7504 28.3119C31.7199 28.3876 31.7048 28.4687 31.7059 28.5504C31.707 28.632 31.7244 28.7126 31.757 28.7875C31.7896 28.8624 31.8367 28.93 31.8958 28.9865C32.4178 29.5003 32.8321 30.1131 33.1141 30.7891C33.3961 31.4651 33.5403 32.1906 33.5381 32.9231C33.5381 33.6758 31.3807 34.7693 27.9997 34.7693C24.6187 34.7693 22.4613 33.6752 22.4613 32.9219C22.4592 32.1944 22.6014 31.4738 22.8797 30.8017C23.1581 30.1296 23.5669 29.5194 24.0827 29.0064C24.141 28.9495 24.1875 28.8816 24.2194 28.8066C24.2512 28.7317 24.2679 28.6511 24.2685 28.5697C24.269 28.4882 24.2533 28.4074 24.2224 28.3321C24.1914 28.2567 24.1458 28.1882 24.0882 28.1306C24.0306 28.073 23.9621 28.0274 23.8868 27.9965C23.8114 27.9655 23.7306 27.9499 23.6492 27.9504C23.5677 27.9509 23.4872 27.9676 23.4122 27.9995C23.3372 28.0314 23.2693 28.0778 23.2125 28.1362C22.582 28.7634 22.0821 29.5094 21.7419 30.3311C21.4017 31.1528 21.2279 32.0338 21.2305 32.9231C21.2305 34.9216 24.7179 36 27.9997 36C31.2815 36 34.7689 34.9216 34.7689 32.9231C34.7716 32.0278 34.5954 31.1409 34.2506 30.3147C33.9059 29.4884 33.3994 28.7394 32.7611 28.1116Z" fill="white"/>
<path d="M27.9991 28.6154C28.8511 28.6154 29.6839 28.3627 30.3923 27.8894C31.1007 27.416 31.6528 26.7433 31.9789 25.9562C32.3049 25.169 32.3902 24.3029 32.224 23.4673C32.0578 22.6317 31.6475 21.8641 31.0451 21.2617C30.4426 20.6593 29.6751 20.249 28.8395 20.0828C28.0039 19.9166 27.1377 20.0019 26.3506 20.3279C25.5635 20.6539 24.8907 21.2061 24.4174 21.9145C23.944 22.6229 23.6914 23.4557 23.6914 24.3077C23.6927 25.4497 24.147 26.5446 24.9546 27.3522C25.7621 28.1598 26.857 28.614 27.9991 28.6154ZM27.9991 21.2308C28.6076 21.2308 29.2025 21.4112 29.7085 21.7493C30.2145 22.0874 30.6089 22.568 30.8418 23.1302C31.0747 23.6924 31.1356 24.3111 31.0169 24.908C30.8981 25.5048 30.6051 26.0531 30.1748 26.4834C29.7445 26.9137 29.1962 27.2067 28.5994 27.3255C28.0025 27.4442 27.3838 27.3833 26.8216 27.1504C26.2594 26.9175 25.7788 26.5231 25.4407 26.0171C25.1026 25.5111 24.9222 24.9162 24.9222 24.3077C24.9231 23.4919 25.2476 22.7099 25.8244 22.133C26.4013 21.5562 27.1833 21.2317 27.9991 21.2308Z" fill="white"/>
<defs>
<filter id="filter0_f_5447_2309" x="0.7" y="0.7" width="54.6" height="54.6" filterUnits="userSpaceOnUse" color-interpolation-filters="sRGB">
<feFlood flood-opacity="0" result="BackgroundImageFix"/>
<feBlend mode="normal" in="SourceGraphic" in2="BackgroundImageFix" result="shape"/>
<feGaussianBlur stdDeviation="7.65" result="effect1_foregroundBlur_5447_2309"/>
</filter>
<linearGradient id="paint0_linear_5447_2309" x1="41.5" y1="14.5" x2="13" y2="41.5" gradientUnits="userSpaceOnUse">
<stop stop-color="#49D3FF"/>
<stop offset="0.781126" stop-color="#AD00FF"/>
</linearGradient>
</defs>
</svg>
