<svg width="56" height="56" viewBox="0 0 56 56" fill="none" xmlns="http://www.w3.org/2000/svg">
<g filter="url(#filter0_f_5447_2327)">
<circle cx="28" cy="28" r="12" fill="url(#paint0_linear_5447_2327)"/>
</g>
<path d="M34.1875 19.793H32.4258V19.0625C32.4258 18.7065 32.1372 18.418 31.7812 18.418H29.9281C29.6714 17.5972 28.9041 17 28 17C27.0942 17 26.3258 17.5994 26.0706 18.4224C23.5882 18.4165 24.3783 18.418 24.2188 18.418C23.8635 18.418 23.5742 18.7061 23.5742 19.0625V19.793H21.8125C20.6989 19.793 19.793 20.6989 19.793 21.8125V36.9805C19.793 38.094 20.6989 39 21.8125 39H34.1875C35.3011 39 36.207 38.094 36.207 36.9805V21.8125C36.207 20.6989 35.3011 19.793 34.1875 19.793ZM24.8633 19.7086L26.6235 19.7128C26.9734 19.7142 27.2695 19.4304 27.2695 19.0683V19.0195C27.2695 18.6167 27.5972 18.2891 28 18.2891C28.4028 18.2891 28.7305 18.6167 28.7305 19.0195V19.0625C28.7305 19.4185 29.019 19.707 29.375 19.707H31.1367V21.168H24.8633V19.7086ZM34.918 36.9805C34.918 37.3833 34.5903 37.7109 34.1875 37.7109H21.8125C21.4097 37.7109 21.082 37.3833 21.082 36.9805V21.8125C21.082 21.4097 21.4097 21.082 21.8125 21.082H23.5742V21.8125C23.5742 22.1685 23.8628 22.457 24.2188 22.457H31.7812C32.1372 22.457 32.4258 22.1685 32.4258 21.8125V21.082H34.1875C34.5903 21.082 34.918 21.4097 34.918 21.8125V36.9805Z" fill="white"/>
<path d="M32.5807 32.3568C32.3291 32.1051 31.921 32.1051 31.6693 32.3568L31.0938 32.9322L30.5182 32.3567C30.2666 32.1051 29.8585 32.1051 29.6068 32.3567C29.355 32.6084 29.355 33.0165 29.6068 33.2682L30.1823 33.8437L29.6068 34.4193C29.355 34.6709 29.355 35.079 29.6068 35.3308C29.8585 35.5825 30.2665 35.5825 30.5182 35.3308L31.0938 34.7552L31.6693 35.3308C31.921 35.5825 32.3291 35.5825 32.5808 35.3308C32.8325 35.0791 32.8325 34.671 32.5808 34.4193L32.0053 33.8437L32.5808 33.2682C32.8325 33.0165 32.8325 32.6084 32.5807 32.3568Z" fill="white"/>
<path d="M31.5495 24.1067C31.2978 23.8551 30.8897 23.8551 30.638 24.1067L29.263 25.4817C29.0113 25.7334 29.0113 26.1415 29.263 26.3932C29.5146 26.6449 29.9228 26.6449 30.1745 26.3932L30.4492 26.1185V26.2812C30.4492 28.1038 29.2631 28.7951 27.7614 29.6703C26.9416 30.1481 26.0939 30.6421 25.4295 31.3697C24.6437 32.2303 24.2617 33.2644 24.2617 34.5312V34.8749C24.2617 35.2309 24.5503 35.5195 24.9062 35.5195C25.2622 35.5195 25.5508 35.2309 25.5508 34.8749V34.5312C25.5508 32.4507 26.876 31.6783 28.4105 30.784C29.9703 29.8749 31.7383 28.8445 31.7383 26.2812V26.1185L32.013 26.3932C32.2647 26.645 32.6728 26.6449 32.9245 26.3932C33.1762 26.1415 33.1762 25.7334 32.9245 25.4817L31.5495 24.1067Z" fill="white"/>
<path d="M26.9258 26.2812C26.9258 25.1677 26.0198 24.2617 24.9062 24.2617C23.7927 24.2617 22.8867 25.1677 22.8867 26.2812C22.8867 27.3948 23.7927 28.3008 24.9062 28.3008C26.0198 28.3008 26.9258 27.3948 26.9258 26.2812ZM24.1758 26.2812C24.1758 25.8785 24.5035 25.5508 24.9062 25.5508C25.309 25.5508 25.6367 25.8785 25.6367 26.2812C25.6367 26.684 25.309 27.0117 24.9062 27.0117C24.5035 27.0117 24.1758 26.684 24.1758 26.2812Z" fill="white"/>
<defs>
<filter id="filter0_f_5447_2327" x="0.7" y="0.7" width="54.6" height="54.6" filterUnits="userSpaceOnUse" color-interpolation-filters="sRGB">
<feFlood flood-opacity="0" result="BackgroundImageFix"/>
<feBlend mode="normal" in="SourceGraphic" in2="BackgroundImageFix" result="shape"/>
<feGaussianBlur stdDeviation="7.65" result="effect1_foregroundBlur_5447_2327"/>
</filter>
<linearGradient id="paint0_linear_5447_2327" x1="41.5" y1="14.5" x2="19.5" y2="40" gradientUnits="userSpaceOnUse">
<stop offset="0.095" stop-color="#7000FF"/>
<stop offset="0.34" stop-color="#A233C4"/>
<stop offset="0.83422" stop-color="#FF9255"/>
</linearGradient>
</defs>
</svg>
