<svg width="80" height="80" viewBox="0 0 80 80" fill="none" xmlns="http://www.w3.org/2000/svg">
<g filter="url(#filter0_f_7225_7381)">
<circle cx="40" cy="40" r="17" fill="url(#paint0_radial_7225_7381)"/>
<circle cx="40" cy="40" r="17" fill="url(#paint1_radial_7225_7381)"/>
</g>
<g clip-path="url(#clip0_7225_7381)">
<path d="M40 28C36.7435 28 36.334 28.015 35.0545 28.072C33.775 28.132 32.9035 28.333 32.14 28.63C31.3388 28.9305 30.6132 29.4031 30.0145 30.0145C29.4031 30.6132 28.9305 31.3388 28.63 32.14C28.333 32.902 28.1305 33.775 28.072 35.05C28.015 36.3325 28 36.7405 28 40.0015C28 43.2595 28.015 43.6675 28.072 44.947C28.132 46.225 28.333 47.0965 28.63 47.86C28.9375 48.649 29.347 49.318 30.0145 49.9855C30.6805 50.653 31.3495 51.064 32.1385 51.37C32.9035 51.667 33.7735 51.8695 35.0515 51.928C36.3325 51.985 36.7405 52 40 52C43.2595 52 43.666 51.985 44.947 51.928C46.2235 51.868 47.098 51.667 47.8615 51.37C48.6622 51.0693 49.3872 50.5967 49.9855 49.9855C50.653 49.318 51.0625 48.649 51.37 47.86C51.6655 47.0965 51.868 46.225 51.928 44.947C51.985 43.6675 52 43.2595 52 40C52 36.7405 51.985 36.3325 51.928 35.0515C51.868 33.775 51.6655 32.902 51.37 32.14C51.0695 31.3388 50.5969 30.6132 49.9855 30.0145C49.3868 29.4031 48.6612 28.9305 47.86 28.63C47.095 28.333 46.222 28.1305 44.9455 28.072C43.6645 28.015 43.258 28 39.997 28H40ZM38.9245 30.163H40.0015C43.2055 30.163 43.585 30.1735 44.8495 30.232C46.0195 30.2845 46.6555 30.481 47.0785 30.6445C47.638 30.862 48.0385 31.123 48.4585 31.543C48.8785 31.963 49.138 32.362 49.3555 32.923C49.5205 33.3445 49.7155 33.9805 49.768 35.1505C49.8265 36.415 49.8385 36.7945 49.8385 39.997C49.8385 43.1995 49.8265 43.5805 49.768 44.845C49.7155 46.015 49.519 46.6495 49.3555 47.0725C49.1617 47.5929 48.8549 48.0637 48.457 48.451C48.037 48.871 47.638 49.1305 47.077 49.348C46.657 49.513 46.021 49.708 44.8495 49.762C43.585 49.819 43.2055 49.8325 40.0015 49.8325C36.7975 49.8325 36.4165 49.819 35.152 49.762C33.982 49.708 33.3475 49.513 32.9245 49.348C32.4037 49.1549 31.9324 48.8485 31.5445 48.451C31.1459 48.0634 30.8385 47.592 30.6445 47.071C30.481 46.6495 30.2845 46.0135 30.232 44.8435C30.175 43.579 30.163 43.1995 30.163 39.994C30.163 36.7885 30.175 36.412 30.232 35.1475C30.286 33.9775 30.481 33.3415 30.646 32.9185C30.8635 32.359 31.1245 31.9585 31.5445 31.5385C31.9645 31.1185 32.3635 30.859 32.9245 30.6415C33.3475 30.4765 33.982 30.2815 35.152 30.2275C36.259 30.1765 36.688 30.1615 38.9245 30.16V30.163ZM46.4065 32.155C46.2174 32.155 46.0301 32.1922 45.8554 32.2646C45.6807 32.337 45.522 32.443 45.3883 32.5768C45.2545 32.7105 45.1485 32.8692 45.0761 33.0439C45.0037 33.2186 44.9665 33.4059 44.9665 33.595C44.9665 33.7841 45.0037 33.9714 45.0761 34.1461C45.1485 34.3208 45.2545 34.4795 45.3883 34.6132C45.522 34.747 45.6807 34.853 45.8554 34.9254C46.0301 34.9978 46.2174 35.035 46.4065 35.035C46.7884 35.035 47.1547 34.8833 47.4247 34.6132C47.6948 34.3432 47.8465 33.9769 47.8465 33.595C47.8465 33.2131 47.6948 32.8468 47.4247 32.5768C47.1547 32.3067 46.7884 32.155 46.4065 32.155ZM40.0015 33.838C39.1841 33.8252 38.3723 33.9752 37.6135 34.2792C36.8546 34.5832 36.1638 35.0351 35.5812 35.6086C34.9987 36.1822 34.536 36.8659 34.2203 37.6199C33.9045 38.3739 33.7419 39.1833 33.7419 40.0007C33.7419 40.8182 33.9045 41.6276 34.2203 42.3816C34.536 43.1356 34.9987 43.8193 35.5812 44.3929C36.1638 44.9664 36.8546 45.4183 37.6135 45.7223C38.3723 46.0263 39.1841 46.1763 40.0015 46.1635C41.6193 46.1383 43.1623 45.4779 44.2975 44.3249C45.4326 43.1719 46.0689 41.6188 46.0689 40.0007C46.0689 38.3827 45.4326 36.8296 44.2975 35.6766C43.1623 34.5236 41.6193 33.8632 40.0015 33.838ZM40.0015 35.9995C40.5269 35.9995 41.0471 36.103 41.5324 36.304C42.0178 36.5051 42.4588 36.7997 42.8303 37.1712C43.2018 37.5427 43.4964 37.9837 43.6975 38.4691C43.8985 38.9544 44.002 39.4746 44.002 40C44.002 40.5254 43.8985 41.0456 43.6975 41.5309C43.4964 42.0163 43.2018 42.4573 42.8303 42.8288C42.4588 43.2003 42.0178 43.4949 41.5324 43.696C41.0471 43.897 40.5269 44.0005 40.0015 44.0005C38.9405 44.0005 37.923 43.579 37.1727 42.8288C36.4225 42.0785 36.001 41.061 36.001 40C36.001 38.939 36.4225 37.9215 37.1727 37.1712C37.923 36.421 38.9405 35.9995 40.0015 35.9995Z" fill="white"/>
</g>
<defs>
<filter id="filter0_f_7225_7381" x="0.6" y="0.6" width="78.8" height="78.8" filterUnits="userSpaceOnUse" color-interpolation-filters="sRGB">
<feFlood flood-opacity="0" result="BackgroundImageFix"/>
<feBlend mode="normal" in="SourceGraphic" in2="BackgroundImageFix" result="shape"/>
<feGaussianBlur stdDeviation="11.2" result="effect1_foregroundBlur_7225_7381"/>
</filter>
<radialGradient id="paint0_radial_7225_7381" cx="0" cy="0" r="1" gradientUnits="userSpaceOnUse" gradientTransform="translate(32.0312 59.6187) rotate(-90) scale(33.6965 31.3404)">
<stop stop-color="#FFDD55"/>
<stop offset="0.1" stop-color="#FFDD55"/>
<stop offset="0.5" stop-color="#FF543E"/>
<stop offset="1" stop-color="#C837AB"/>
</radialGradient>
<radialGradient id="paint1_radial_7225_7381" cx="0" cy="0" r="1" gradientUnits="userSpaceOnUse" gradientTransform="translate(17.3049 25.4492) rotate(78.681) scale(15.0625 62.0882)">
<stop stop-color="#3771C8"/>
<stop offset="0.128" stop-color="#3771C8"/>
<stop offset="1" stop-color="#6600FF" stop-opacity="0"/>
</radialGradient>
<clipPath id="clip0_7225_7381">
<rect width="24" height="24" fill="white" transform="translate(28 28)"/>
</clipPath>
</defs>
</svg>
