<svg width="173" height="51" viewBox="0 0 173 51" fill="none" xmlns="http://www.w3.org/2000/svg">
<rect x="0.736328" width="171.611" height="50.8477" rx="8.89834" fill="black"/>
<rect x="1.46445" y="0.728118" width="170.155" height="49.3914" rx="8.17022" stroke="white" stroke-opacity="0.22" stroke-width="1.45624"/>
<path d="M87.3538 27.6535C84.3639 27.6535 81.927 29.9277 81.927 33.0599C81.927 36.173 84.3639 38.4663 87.3538 38.4663C90.3449 38.4663 92.7817 36.173 92.7817 33.0599C92.7805 29.9277 90.3436 27.6535 87.3538 27.6535ZM87.3538 36.3383C85.7152 36.3383 84.3029 34.987 84.3029 33.0612C84.3029 31.115 85.7165 29.784 87.3538 29.784C88.9923 29.784 90.4046 31.115 90.4046 33.0612C90.4046 34.9857 88.9923 36.3383 87.3538 36.3383ZM75.5139 27.6535C72.524 27.6535 70.0872 29.9277 70.0872 33.0599C70.0872 36.173 72.524 38.4663 75.5139 38.4663C78.505 38.4663 80.9419 36.173 80.9419 33.0599C80.9419 29.9277 78.505 27.6535 75.5139 27.6535ZM75.5139 36.3383C73.8753 36.3383 72.463 34.987 72.463 33.0612C72.463 31.115 73.8766 29.784 75.5139 29.784C77.1525 29.784 78.5647 31.115 78.5647 33.0612C78.566 34.9857 77.1525 36.3383 75.5139 36.3383ZM61.4316 29.3137V31.6069H66.9206C66.7567 32.8972 66.327 33.8391 65.6711 34.4938C64.8727 35.2921 63.6232 36.173 61.4316 36.173C58.0528 36.173 55.4113 33.4489 55.4113 30.07C55.4113 26.6912 58.0528 23.9671 61.4316 23.9671C63.2545 23.9671 64.5855 24.684 65.5681 25.6056L67.1863 23.9874C65.8134 22.6768 63.9918 21.6738 61.4316 21.6738C56.8032 21.6738 52.9121 25.4416 52.9121 30.07C52.9121 34.6985 56.8032 38.4663 61.4316 38.4663C63.9295 38.4663 65.8147 37.6463 67.288 36.1107C68.8033 34.5955 69.2749 32.465 69.2749 30.745C69.2749 30.2137 69.2342 29.7217 69.1516 29.3124H61.4316V29.3137ZM119.027 31.0946C118.577 29.887 117.204 27.6535 114.398 27.6535C111.613 27.6535 109.298 29.845 109.298 33.0599C109.298 36.0904 111.593 38.4663 114.664 38.4663C117.142 38.4663 118.575 36.951 119.17 36.0701L117.327 34.8408C116.713 35.7421 115.873 36.3357 114.664 36.3357C113.456 36.3357 112.596 35.7828 112.043 34.6972L119.272 31.7073L119.027 31.0946ZM111.654 32.8972C111.593 30.8073 113.272 29.7434 114.481 29.7434C115.423 29.7434 116.221 30.215 116.488 30.89L111.654 32.8972ZM105.777 38.1396H108.152V22.2484H105.777V38.1396ZM101.885 28.8624H101.803C101.271 28.2268 100.246 27.6535 98.9572 27.6535C96.2534 27.6535 93.7758 30.0294 93.7758 33.0815C93.7758 36.112 96.2534 38.4675 98.9572 38.4675C100.247 38.4675 101.271 37.8942 101.803 37.2396H101.885V38.0175C101.885 40.0858 100.779 41.1917 98.9979 41.1917C97.5436 41.1917 96.6424 40.1481 96.2737 39.2671L94.2055 40.1277C94.7991 41.5603 96.3754 43.3222 98.9979 43.3222C101.783 43.3222 104.139 41.6836 104.139 37.6896V27.9827H101.886V28.8624H101.885ZM99.1619 36.3383C97.5233 36.3383 96.1517 34.9654 96.1517 33.0815C96.1517 31.176 97.5233 29.784 99.1619 29.784C100.779 29.784 102.049 31.176 102.049 33.0815C102.049 34.9654 100.779 36.3383 99.1619 36.3383ZM130.155 22.2484H124.471V38.1396H126.842V32.1192H130.153C132.782 32.1192 135.368 30.2162 135.368 27.1844C135.368 24.1527 132.784 22.2484 130.155 22.2484ZM130.216 29.9073H126.842V24.4603H130.216C131.989 24.4603 132.996 25.9285 132.996 27.1844C132.996 28.415 131.989 29.9073 130.216 29.9073ZM144.875 27.6255C143.158 27.6255 141.379 28.3819 140.643 30.0586L142.748 30.937C143.198 30.0586 144.037 29.7713 144.916 29.7713C146.143 29.7713 147.39 30.5073 147.41 31.8154V31.9794C146.98 31.734 146.06 31.3667 144.936 31.3667C142.667 31.3667 140.356 32.6137 140.356 34.9438C140.356 37.0705 142.217 38.4396 144.302 38.4396C145.896 38.4396 146.776 37.7239 147.327 36.8849H147.409V38.1116H149.699V32.0188C149.701 29.1993 147.593 27.6255 144.875 27.6255ZM144.588 36.3345C143.812 36.3345 142.728 35.9455 142.728 34.9845C142.728 33.7578 144.078 33.2874 145.244 33.2874C146.285 33.2874 146.777 33.5124 147.41 33.8188C147.226 35.2921 145.958 36.3345 144.588 36.3345ZM158.041 27.9726L155.322 34.8624H155.24L152.418 27.9726H149.863L154.095 37.6019L151.682 42.9587H154.156L160.679 27.9726H158.041ZM136.677 38.1396H139.048V22.2484H136.677V38.1396Z" fill="white"/>
<path d="M61.0157 13.0225C61.0157 14.0878 60.7005 14.9357 60.0687 15.5687C59.3517 16.3213 58.4161 16.6976 57.267 16.6976C56.1661 16.6976 55.2293 16.3162 54.4602 15.5535C53.6899 14.7895 53.3047 13.8437 53.3047 12.7149C53.3047 11.5848 53.6899 10.6391 54.4602 9.87634C55.2293 9.11236 56.1661 8.731 57.267 8.731C57.8136 8.731 58.3361 8.83778 58.8318 9.05007C59.3289 9.26363 59.7267 9.5471 60.0242 9.90177L59.3543 10.573C58.8496 9.96914 58.1543 9.66787 57.2657 9.66787C56.4623 9.66787 55.7683 9.95007 55.1822 10.5145C54.5962 11.0789 54.3038 11.8124 54.3038 12.7136C54.3038 13.6149 54.5962 14.3484 55.1822 14.9128C55.7683 15.4772 56.4623 15.7594 57.2657 15.7594C58.1174 15.7594 58.828 15.4759 59.3962 14.9077C59.7649 14.5378 59.9784 14.023 60.0356 13.3632H57.2657V12.4467H60.9611C60.9992 12.6463 61.0157 12.8382 61.0157 13.0225Z" fill="white"/>
<path d="M66.876 9.83701H63.4032V12.2548H66.5354V13.1713H63.4032V15.5891H66.876V16.5273H62.4231V8.90014H66.876V9.83701Z" fill="white"/>
<path d="M71.0085 16.5273H70.0285V9.83701H67.8979V8.90014H73.1391V9.83701H71.0085V16.5273Z" fill="white"/>
<path d="M76.931 16.5273V8.90014H77.9111V16.5273H76.931Z" fill="white"/>
<path d="M82.2575 16.5273H81.2774V9.83701H79.1469V8.90014H84.388V9.83701H82.2575V16.5273Z" fill="white"/>
<path d="M94.3093 15.5421C93.5593 16.3124 92.6276 16.6976 91.5127 16.6976C90.3979 16.6976 89.4661 16.3124 88.7174 15.5421C87.9674 14.7718 87.5936 13.8285 87.5936 12.7137C87.5936 11.5989 87.9674 10.6556 88.7174 9.8853C89.4661 9.11496 90.3979 8.72852 91.5127 8.72852C92.6212 8.72852 93.5517 9.11623 94.3043 9.89038C95.0568 10.6645 95.4331 11.6052 95.4331 12.7137C95.4331 13.8285 95.0581 14.7718 94.3093 15.5421ZM89.4407 14.9027C90.0051 15.4747 90.6953 15.7595 91.5127 15.7595C92.3301 15.7595 93.0216 15.4735 93.5848 14.9027C94.1492 14.3307 94.4327 13.601 94.4327 12.7137C94.4327 11.8264 94.1492 11.0967 93.5848 10.5247C93.0216 9.95267 92.3301 9.66793 91.5127 9.66793C90.6953 9.66793 90.0051 9.95394 89.4407 10.5247C88.8775 11.0967 88.5941 11.8264 88.5941 12.7137C88.5941 13.601 88.8775 14.3307 89.4407 14.9027Z" fill="white"/>
<path d="M96.8085 16.5273V8.90014H98.0009L101.708 14.8328H101.75L101.708 13.3633V8.90014H102.688V16.5273H101.664L97.7861 10.3061H97.7441L97.7861 11.7756V16.5273H96.8085Z" fill="white"/>
<path d="M61.0157 13.0225C61.0157 14.0878 60.7005 14.9357 60.0687 15.5687C59.3517 16.3213 58.4161 16.6976 57.267 16.6976C56.1661 16.6976 55.2293 16.3162 54.4602 15.5535C53.6899 14.7895 53.3047 13.8437 53.3047 12.7149C53.3047 11.5848 53.6899 10.6391 54.4602 9.87634C55.2293 9.11236 56.1661 8.731 57.267 8.731C57.8136 8.731 58.3361 8.83778 58.8318 9.05007C59.3289 9.26363 59.7267 9.5471 60.0242 9.90177L59.3543 10.573C58.8496 9.96914 58.1543 9.66787 57.2657 9.66787C56.4623 9.66787 55.7683 9.95007 55.1822 10.5145C54.5962 11.0789 54.3038 11.8124 54.3038 12.7136C54.3038 13.6149 54.5962 14.3484 55.1822 14.9128C55.7683 15.4772 56.4623 15.7594 57.2657 15.7594C58.1174 15.7594 58.828 15.4759 59.3962 14.9077C59.7649 14.5378 59.9784 14.023 60.0356 13.3632H57.2657V12.4467H60.9611C60.9992 12.6463 61.0157 12.8382 61.0157 13.0225Z" stroke="white" stroke-width="0.254238" stroke-miterlimit="10"/>
<path d="M66.876 9.83701H63.4032V12.2548H66.5354V13.1713H63.4032V15.5891H66.876V16.5273H62.4231V8.90014H66.876V9.83701Z" stroke="white" stroke-width="0.254238" stroke-miterlimit="10"/>
<path d="M71.0085 16.5273H70.0285V9.83701H67.8979V8.90014H73.1391V9.83701H71.0085V16.5273Z" stroke="white" stroke-width="0.254238" stroke-miterlimit="10"/>
<path d="M76.931 16.5273V8.90014H77.9111V16.5273H76.931Z" stroke="white" stroke-width="0.254238" stroke-miterlimit="10"/>
<path d="M82.2575 16.5273H81.2774V9.83701H79.1469V8.90014H84.388V9.83701H82.2575V16.5273Z" stroke="white" stroke-width="0.254238" stroke-miterlimit="10"/>
<path d="M94.3093 15.5421C93.5593 16.3124 92.6276 16.6976 91.5127 16.6976C90.3979 16.6976 89.4661 16.3124 88.7174 15.5421C87.9674 14.7718 87.5936 13.8285 87.5936 12.7137C87.5936 11.5989 87.9674 10.6556 88.7174 9.8853C89.4661 9.11496 90.3979 8.72852 91.5127 8.72852C92.6212 8.72852 93.5517 9.11623 94.3043 9.89038C95.0568 10.6645 95.4331 11.6052 95.4331 12.7137C95.4331 13.8285 95.0581 14.7718 94.3093 15.5421ZM89.4407 14.9027C90.0051 15.4747 90.6953 15.7595 91.5127 15.7595C92.3301 15.7595 93.0216 15.4735 93.5848 14.9027C94.1492 14.3307 94.4327 13.601 94.4327 12.7137C94.4327 11.8264 94.1492 11.0967 93.5848 10.5247C93.0216 9.95267 92.3301 9.66793 91.5127 9.66793C90.6953 9.66793 90.0051 9.95394 89.4407 10.5247C88.8775 11.0967 88.5941 11.8264 88.5941 12.7137C88.5941 13.601 88.8775 14.3307 89.4407 14.9027Z" stroke="white" stroke-width="0.254238" stroke-miterlimit="10"/>
<path d="M96.8085 16.5273V8.90014H98.0009L101.708 14.8328H101.75L101.708 13.3633V8.90014H102.688V16.5273H101.664L97.7861 10.3061H97.7441L97.7861 11.7756V16.5273H96.8085Z" stroke="white" stroke-width="0.254238" stroke-miterlimit="10"/>
<g filter="url(#filter0_ii_6885_7271)">
<path d="M14.0065 9.58498C13.6366 9.97651 13.418 10.5841 13.418 11.371V39.4847C13.418 40.2728 13.6366 40.8792 14.0065 41.2707L14.1006 41.3622L29.8494 25.6134V25.4278V25.2422L14.1006 9.49219L14.0065 9.58498Z" fill="url(#paint0_linear_6885_7271)"/>
<path d="M35.0964 30.8618L29.8477 25.6105V25.4249V25.2393L35.0977 19.9893L35.2159 20.0566L41.4358 23.5905C43.2117 24.5999 43.2117 26.2511 41.4358 27.2617L35.2159 30.7957L35.0964 30.8618Z" fill="url(#paint1_linear_6885_7271)"/>
<g filter="url(#filter1_i_6885_7271)">
<path d="M35.2209 30.7972L29.8513 25.4277L14.0098 41.2706C14.5945 41.8909 15.5619 41.9672 16.6513 41.3494L35.2209 30.7972Z" fill="url(#paint2_linear_6885_7271)"/>
</g>
<path d="M35.2209 20.0572L16.6513 9.50632C15.5619 8.88725 14.5945 8.96479 14.0098 9.58513L29.8526 25.428L35.2209 20.0572Z" fill="url(#paint3_linear_6885_7271)"/>
</g>
<defs>
<filter id="filter0_ii_6885_7271" x="13.418" y="9.0791" width="29.3496" height="32.6973" filterUnits="userSpaceOnUse" color-interpolation-filters="sRGB">
<feFlood flood-opacity="0" result="BackgroundImageFix"/>
<feBlend mode="normal" in="SourceGraphic" in2="BackgroundImageFix" result="shape"/>
<feColorMatrix in="SourceAlpha" type="matrix" values="0 0 0 0 0 0 0 0 0 0 0 0 0 0 0 0 0 0 127 0" result="hardAlpha"/>
<feOffset dy="-0.190679"/>
<feComposite in2="hardAlpha" operator="arithmetic" k2="-1" k3="1"/>
<feColorMatrix type="matrix" values="0 0 0 0 0 0 0 0 0 0 0 0 0 0 0 0 0 0 0.12 0"/>
<feBlend mode="normal" in2="shape" result="effect1_innerShadow_6885_7271"/>
<feColorMatrix in="SourceAlpha" type="matrix" values="0 0 0 0 0 0 0 0 0 0 0 0 0 0 0 0 0 0 127 0" result="hardAlpha"/>
<feOffset dy="0.190679"/>
<feComposite in2="hardAlpha" operator="arithmetic" k2="-1" k3="1"/>
<feColorMatrix type="matrix" values="0 0 0 0 1 0 0 0 0 1 0 0 0 0 1 0 0 0 0.25 0"/>
<feBlend mode="normal" in2="effect1_innerShadow_6885_7271" result="effect2_innerShadow_6885_7271"/>
</filter>
<filter id="filter1_i_6885_7271" x="14.0098" y="25.4277" width="21.2109" height="16.3486" filterUnits="userSpaceOnUse" color-interpolation-filters="sRGB">
<feFlood flood-opacity="0" result="BackgroundImageFix"/>
<feBlend mode="normal" in="SourceGraphic" in2="BackgroundImageFix" result="shape"/>
<feColorMatrix in="SourceAlpha" type="matrix" values="0 0 0 0 0 0 0 0 0 0 0 0 0 0 0 0 0 0 127 0" result="hardAlpha"/>
<feOffset dy="-0.190679"/>
<feComposite in2="hardAlpha" operator="arithmetic" k2="-1" k3="1"/>
<feColorMatrix type="matrix" values="0 0 0 0 0 0 0 0 0 0 0 0 0 0 0 0 0 0 0.08 0"/>
<feBlend mode="normal" in2="shape" result="effect1_innerShadow_6885_7271"/>
</filter>
<linearGradient id="paint0_linear_6885_7271" x1="28.4534" y1="11.0735" x2="7.12024" y2="32.4067" gradientUnits="userSpaceOnUse">
<stop stop-color="#00A0FF"/>
<stop offset="0.0066" stop-color="#00A1FF"/>
<stop offset="0.2601" stop-color="#00BEFF"/>
<stop offset="0.5122" stop-color="#00D2FF"/>
<stop offset="0.7604" stop-color="#00DFFF"/>
<stop offset="1" stop-color="#00E3FF"/>
</linearGradient>
<linearGradient id="paint1_linear_6885_7271" x1="43.7475" y1="25.4249" x2="12.9899" y2="25.4249" gradientUnits="userSpaceOnUse">
<stop stop-color="#FFE000"/>
<stop offset="0.4087" stop-color="#FFBD00"/>
<stop offset="0.7754" stop-color="#FFA500"/>
<stop offset="1" stop-color="#FF9C00"/>
</linearGradient>
<linearGradient id="paint2_linear_6885_7271" x1="32.3049" y1="28.3437" x2="3.37447" y2="57.2741" gradientUnits="userSpaceOnUse">
<stop stop-color="#FF3A44"/>
<stop offset="1" stop-color="#C31162"/>
</linearGradient>
<linearGradient id="paint3_linear_6885_7271" x1="10.02" y1="0.226369" x2="22.9382" y2="13.1446" gradientUnits="userSpaceOnUse">
<stop stop-color="#32A071"/>
<stop offset="0.0685" stop-color="#2DA771"/>
<stop offset="0.4762" stop-color="#15CF74"/>
<stop offset="0.8009" stop-color="#06E775"/>
<stop offset="1" stop-color="#00F076"/>
</linearGradient>
</defs>
</svg>
