<svg width="89" height="90" viewBox="0 0 89 90" fill="none" xmlns="http://www.w3.org/2000/svg">
<g filter="url(#filter0_f_5214_21898)">
<circle cx="44.5" cy="44.8486" r="18" fill="url(#paint0_linear_5214_21898)" fill-opacity="0.8"/>
</g>
<path fill-rule="evenodd" clip-rule="evenodd" d="M49.167 54.8486V52.8486H55.167C55.963 52.8486 56.726 52.5326 57.288 51.9696C57.851 51.4076 58.167 50.6446 58.167 49.8486V35.8486C58.167 35.0526 57.851 34.2896 57.288 33.7276C56.726 33.1646 55.963 32.8486 55.167 32.8486H33.167C32.371 32.8486 31.608 33.1646 31.046 33.7276C30.483 34.2896 30.167 35.0526 30.167 35.8486V49.8486C30.167 50.6446 30.483 51.4076 31.046 51.9696C31.608 52.5326 32.371 52.8486 33.167 52.8486H39.167V54.8486H38.167C37.615 54.8486 37.167 55.2966 37.167 55.8486C37.167 56.4006 37.615 56.8486 38.167 56.8486H50.167C50.719 56.8486 51.167 56.4006 51.167 55.8486C51.167 55.2966 50.719 54.8486 50.167 54.8486H49.167ZM47.167 52.8486H41.167V54.8486H47.167V52.8486ZM56.167 35.8486V49.8486C56.167 50.1136 56.062 50.3686 55.874 50.5556C55.687 50.7436 55.432 50.8486 55.167 50.8486H33.167C32.902 50.8486 32.647 50.7436 32.46 50.5556C32.272 50.3686 32.167 50.1136 32.167 49.8486V35.8486C32.167 35.5836 32.272 35.3286 32.46 35.1416C32.647 34.9536 32.902 34.8486 33.167 34.8486H55.167C55.432 34.8486 55.687 34.9536 55.874 35.1416C56.062 35.3286 56.167 35.5836 56.167 35.8486ZM54.167 47.8486C54.719 47.8486 55.167 48.2966 55.167 48.8486C55.167 49.4006 54.719 49.8486 54.167 49.8486C53.615 49.8486 53.167 49.4006 53.167 48.8486C53.167 48.2966 53.615 47.8486 54.167 47.8486Z" fill="white"/>
<defs>
<filter id="filter0_f_5214_21898" x="0.299999" y="0.648632" width="88.4" height="88.4" filterUnits="userSpaceOnUse" color-interpolation-filters="sRGB">
<feFlood flood-opacity="0" result="BackgroundImageFix"/>
<feBlend mode="normal" in="SourceGraphic" in2="BackgroundImageFix" result="shape"/>
<feGaussianBlur stdDeviation="13.1" result="effect1_foregroundBlur_5214_21898"/>
</filter>
<linearGradient id="paint0_linear_5214_21898" x1="64.75" y1="24.5986" x2="22" y2="65.0986" gradientUnits="userSpaceOnUse">
<stop stop-color="#00FFC2"/>
<stop offset="1" stop-color="#FFA800"/>
</linearGradient>
</defs>
</svg>
