<svg width="89" height="90" viewBox="0 0 89 90" fill="none" xmlns="http://www.w3.org/2000/svg">
<g filter="url(#filter0_f_5214_21887)">
<circle cx="44.5" cy="44.8486" r="18" fill="url(#paint0_linear_5214_21887)" fill-opacity="0.8"/>
</g>
<path d="M55.6429 55.1343H34.2143V33.7058C34.2143 33.4784 34.124 33.2604 33.9632 33.0997C33.8025 32.9389 33.5845 32.8486 33.3571 32.8486C33.1298 32.8486 32.9118 32.9389 32.7511 33.0997C32.5903 33.2604 32.5 33.4784 32.5 33.7058V55.9915C32.5 56.2188 32.5903 56.4368 32.7511 56.5976C32.9118 56.7583 33.1298 56.8486 33.3571 56.8486H55.6429C55.8702 56.8486 56.0882 56.7583 56.2489 56.5976C56.4097 56.4368 56.5 56.2188 56.5 55.9915C56.5 55.7642 56.4097 55.5461 56.2489 55.3854C56.0882 55.2247 55.8702 55.1343 55.6429 55.1343Z" fill="white"/>
<path d="M36.7859 51.706H37.643V52.5631C37.643 52.7905 37.7333 53.0085 37.894 53.1692C38.0548 53.33 38.2728 53.4203 38.5001 53.4203C38.7275 53.4203 38.9455 53.33 39.1062 53.1692C39.267 53.0085 39.3573 52.7905 39.3573 52.5631V51.706H40.2144C40.4418 51.706 40.6598 51.6157 40.8205 51.4549C40.9813 51.2942 41.0716 51.0762 41.0716 50.8488V45.706C41.0716 45.4787 40.9813 45.2606 40.8205 45.0999C40.6598 44.9391 40.4418 44.8488 40.2144 44.8488H39.3573V38.8488C39.3573 38.6215 39.267 38.4035 39.1062 38.2428C38.9455 38.082 38.7275 37.9917 38.5001 37.9917C38.2728 37.9917 38.0548 38.082 37.894 38.2428C37.7333 38.4035 37.643 38.6215 37.643 38.8488V44.8488H36.7859C36.5585 44.8488 36.3405 44.9391 36.1798 45.0999C36.019 45.2606 35.9287 45.4787 35.9287 45.706V50.8488C35.9287 51.0762 36.019 51.2942 36.1798 51.4549C36.3405 51.6157 36.5585 51.706 36.7859 51.706ZM37.643 46.5631H39.3573V49.9917H37.643V46.5631Z" fill="white"/>
<path d="M44.4997 47.4201H45.3569V51.7058C45.3569 51.9331 45.4472 52.1511 45.6079 52.3119C45.7687 52.4726 45.9867 52.5629 46.214 52.5629C46.4413 52.5629 46.6594 52.4726 46.8201 52.3119C46.9808 52.1511 47.0711 51.9331 47.0711 51.7058V47.4201H47.9283C48.1556 47.4201 48.3736 47.3298 48.5344 47.169C48.6951 47.0083 48.7854 46.7902 48.7854 46.5629V36.2772C48.7854 36.0499 48.6951 35.8319 48.5344 35.6711C48.3736 35.5104 48.1556 35.4201 47.9283 35.4201H47.0711V33.7058C47.0711 33.4784 46.9808 33.2604 46.8201 33.0997C46.6594 32.9389 46.4413 32.8486 46.214 32.8486C45.9867 32.8486 45.7687 32.9389 45.6079 33.0997C45.4472 33.2604 45.3569 33.4784 45.3569 33.7058V35.4201H44.4997C44.2724 35.4201 44.0544 35.5104 43.8936 35.6711C43.7329 35.8319 43.6426 36.0499 43.6426 36.2772V46.5629C43.6426 46.7902 43.7329 47.0083 43.8936 47.169C44.0544 47.3298 44.2724 47.4201 44.4997 47.4201ZM45.3569 37.1343H47.0711V45.7058H45.3569V37.1343Z" fill="white"/>
<path d="M55.6431 38.8487H54.786V35.4201C54.786 35.1928 54.6957 34.9748 54.5349 34.814C54.3742 34.6533 54.1562 34.563 53.9289 34.563C53.7015 34.563 53.4835 34.6533 53.3228 34.814C53.162 34.9748 53.0717 35.1928 53.0717 35.4201V38.8487H52.2146C51.9872 38.8487 51.7692 38.939 51.6085 39.0998C51.4477 39.2605 51.3574 39.4785 51.3574 39.7058V48.2773C51.3574 48.5046 51.4477 48.7226 51.6085 48.8834C51.7692 49.0441 51.9872 49.1344 52.2146 49.1344H53.0717V49.9916C53.0717 50.2189 53.162 50.4369 53.3228 50.5977C53.4835 50.7584 53.7015 50.8487 53.9289 50.8487C54.1562 50.8487 54.3742 50.7584 54.5349 50.5977C54.6957 50.4369 54.786 50.2189 54.786 49.9916V49.1344H55.6431C55.8705 49.1344 56.0885 49.0441 56.2492 48.8834C56.41 48.7226 56.5003 48.5046 56.5003 48.2773V39.7058C56.5003 39.4785 56.41 39.2605 56.2492 39.0998C56.0885 38.939 55.8705 38.8487 55.6431 38.8487ZM54.786 47.4201H53.0717V40.563H54.786V47.4201Z" fill="white"/>
<defs>
<filter id="filter0_f_5214_21887" x="0.299999" y="0.648632" width="88.4" height="88.4" filterUnits="userSpaceOnUse" color-interpolation-filters="sRGB">
<feFlood flood-opacity="0" result="BackgroundImageFix"/>
<feBlend mode="normal" in="SourceGraphic" in2="BackgroundImageFix" result="shape"/>
<feGaussianBlur stdDeviation="13.1" result="effect1_foregroundBlur_5214_21887"/>
</filter>
<linearGradient id="paint0_linear_5214_21887" x1="64.75" y1="24.5986" x2="22" y2="65.0986" gradientUnits="userSpaceOnUse">
<stop stop-color="#49D3FF"/>
<stop offset="0.781126" stop-color="#AD00FF"/>
</linearGradient>
</defs>
</svg>
