<svg width="89" height="90" viewBox="0 0 89 90" fill="none" xmlns="http://www.w3.org/2000/svg">
<g filter="url(#filter0_f_5214_21908)">
<circle cx="44.5" cy="44.8486" r="18" fill="url(#paint0_linear_5214_21908)" fill-opacity="0.8"/>
</g>
<path fill-rule="evenodd" clip-rule="evenodd" d="M47.4574 38.0992C45.1791 38.0992 43.3321 39.9462 43.3321 42.2245C43.3321 42.6388 42.9963 42.9745 42.5821 42.9745C42.1678 42.9745 41.832 42.6388 41.832 42.2245C41.832 39.1177 44.3506 36.5991 47.4574 36.5991C47.8717 36.5991 48.2075 36.9349 48.2075 37.3492C48.2075 37.7634 47.8717 38.0992 47.4574 38.0992Z" fill="white"/>
<path fill-rule="evenodd" clip-rule="evenodd" d="M40.8278 35.5947C44.4892 31.9333 50.4256 31.9333 54.087 35.5947C57.7484 39.2561 57.7484 45.1924 54.087 48.8538C51.0699 51.8709 46.5082 52.4018 42.9475 50.4467L37.3145 56.0798C36.2893 57.1049 34.6271 57.1049 33.6019 56.0798C32.5767 55.0546 32.5767 53.3924 33.6019 52.3672L39.2349 46.7342C37.2798 43.1735 37.8108 38.6117 40.8278 35.5947ZM53.0262 36.6554C49.9506 33.5798 44.9641 33.5798 41.8886 36.6554C38.8129 39.731 38.8129 44.7175 41.8886 47.7931C44.9641 50.8687 49.9506 50.8687 53.0262 47.7931C56.1018 44.7175 56.1018 39.731 53.0262 36.6554ZM40.8278 48.8538C41.097 49.1231 41.3786 49.3725 41.6706 49.6021L40.1577 51.115L38.5666 49.5239L40.0795 48.0111C40.3091 48.3031 40.5586 48.5846 40.8278 48.8538ZM37.5059 50.5847L34.6626 53.4279C34.2233 53.8673 34.2233 54.5797 34.6626 55.019C35.102 55.4584 35.8144 55.4584 36.2537 55.019L39.097 52.1757L37.5059 50.5847Z" fill="white"/>
<defs>
<filter id="filter0_f_5214_21908" x="0.299999" y="0.648632" width="88.4" height="88.4" filterUnits="userSpaceOnUse" color-interpolation-filters="sRGB">
<feFlood flood-opacity="0" result="BackgroundImageFix"/>
<feBlend mode="normal" in="SourceGraphic" in2="BackgroundImageFix" result="shape"/>
<feGaussianBlur stdDeviation="13.1" result="effect1_foregroundBlur_5214_21908"/>
</filter>
<linearGradient id="paint0_linear_5214_21908" x1="64.75" y1="24.5986" x2="22" y2="65.0986" gradientUnits="userSpaceOnUse">
<stop offset="0.204351" stop-color="#49FFB3"/>
<stop offset="1" stop-color="#5200FF"/>
</linearGradient>
</defs>
</svg>
