<svg width="89" height="90" viewBox="0 0 89 90" fill="none" xmlns="http://www.w3.org/2000/svg">
<g filter="url(#filter0_f_5214_21929)">
<circle cx="44.5" cy="44.8486" r="18" fill="url(#paint0_linear_5214_21929)" fill-opacity="0.8"/>
</g>
<path d="M48.1743 50.7091C48.0644 50.7092 47.9555 50.6876 47.8539 50.6455C47.7523 50.6034 47.66 50.5417 47.5824 50.4638L44.2336 47.115C44.1558 47.0373 44.0941 46.945 44.052 46.8434C44.0099 46.7418 43.9883 46.633 43.9883 46.523V42.0579C43.9883 41.8359 44.0765 41.6229 44.2335 41.4659C44.3905 41.3089 44.6034 41.2207 44.8255 41.2207C45.0475 41.2207 45.2605 41.3089 45.4175 41.4659C45.5745 41.6229 45.6627 41.8359 45.6627 42.0579V46.1764L48.7663 49.2799C48.8833 49.397 48.963 49.5462 48.9953 49.7086C49.0276 49.871 49.011 50.0393 48.9477 50.1922C48.8843 50.3452 48.777 50.4759 48.6394 50.5679C48.5017 50.6599 48.3399 50.709 48.1743 50.7091Z" fill="white"/>
<path d="M44.8256 56.8484C42.4082 56.848 40.0676 55.9996 38.2114 54.451C36.3552 52.9024 35.101 50.7516 34.6675 48.3734C34.2339 45.9952 34.6484 43.5403 35.8387 41.4363C37.0289 39.3322 38.9196 37.7124 41.1813 36.859C41.3891 36.7809 41.6194 36.7886 41.8216 36.8802C42.0238 36.9719 42.1813 37.14 42.2596 37.3477C42.3379 37.5554 42.3305 37.7857 42.2391 37.988C42.1477 38.1903 41.9798 38.348 41.7722 38.4266C39.75 39.1877 38.0856 40.6777 37.1062 42.6037C36.1268 44.5297 35.9032 46.7523 36.4792 48.8348C37.0553 50.9173 38.3895 52.709 40.2195 53.8578C42.0495 55.0066 44.243 55.4294 46.3689 55.0431C48.4948 54.6567 50.3993 53.4893 51.7081 51.7701C53.0169 50.0509 53.6354 47.9043 53.442 45.7523C53.2486 43.6003 52.2573 41.5984 50.6629 40.1402C49.0685 38.6819 46.9863 37.8727 44.8256 37.8717C44.6036 37.8717 44.3906 37.7835 44.2336 37.6265C44.0766 37.4695 43.9884 37.2565 43.9884 37.0345C43.9884 36.8124 44.0766 36.5995 44.2336 36.4425C44.3906 36.2855 44.6036 36.1973 44.8256 36.1973C47.5641 36.1973 50.1905 37.2851 52.1269 39.2216C54.0633 41.158 55.1512 43.7843 55.1512 46.5228C55.1512 49.2614 54.0633 51.8877 52.1269 53.8241C50.1905 55.7606 47.5641 56.8484 44.8256 56.8484Z" fill="white"/>
<path d="M47.6159 34.5231H42.0345C41.8124 34.5231 41.5995 34.4348 41.4425 34.2778C41.2855 34.1208 41.1973 33.9079 41.1973 33.6858C41.1973 33.4638 41.2855 33.2509 41.4425 33.0938C41.5995 32.9368 41.8124 32.8486 42.0345 32.8486H47.6159C47.8379 32.8486 48.0509 32.9368 48.2079 33.0938C48.3649 33.2509 48.4531 33.4638 48.4531 33.6858C48.4531 33.9079 48.3649 34.1208 48.2079 34.2778C48.0509 34.4348 47.8379 34.5231 47.6159 34.5231Z" fill="white"/>
<path d="M44.8255 37.8719C44.6035 37.8718 44.3906 37.7836 44.2336 37.6266C44.0766 37.4696 43.9883 37.2567 43.9883 37.0347V33.6858C43.9883 33.4638 44.0765 33.2509 44.2335 33.0938C44.3905 32.9368 44.6034 32.8486 44.8255 32.8486C45.0475 32.8486 45.2605 32.9368 45.4175 33.0938C45.5745 33.2509 45.6627 33.4638 45.6627 33.6858V37.0347C45.6626 37.2567 45.5744 37.4696 45.4174 37.6266C45.2604 37.7836 45.0475 37.8718 44.8255 37.8719Z" fill="white"/>
<defs>
<filter id="filter0_f_5214_21929" x="0.299999" y="0.648632" width="88.4" height="88.4" filterUnits="userSpaceOnUse" color-interpolation-filters="sRGB">
<feFlood flood-opacity="0" result="BackgroundImageFix"/>
<feBlend mode="normal" in="SourceGraphic" in2="BackgroundImageFix" result="shape"/>
<feGaussianBlur stdDeviation="13.1" result="effect1_foregroundBlur_5214_21929"/>
</filter>
<linearGradient id="paint0_linear_5214_21929" x1="64.75" y1="24.5986" x2="22" y2="65.0986" gradientUnits="userSpaceOnUse">
<stop stop-color="#FF0000"/>
<stop offset="0.70727" stop-color="#FFC368"/>
</linearGradient>
</defs>
</svg>
