<svg width="80" height="80" viewBox="0 0 80 80" fill="none" xmlns="http://www.w3.org/2000/svg">
<g filter="url(#filter0_f_7225_7384)">
<circle cx="40" cy="40" r="17" fill="#FF0000"/>
</g>
<g clip-path="url(#clip0_7225_7384)">
<mask id="mask0_7225_7384" style="mask-type:luminance" maskUnits="userSpaceOnUse" x="28" y="28" width="24" height="24">
<path d="M28 28H52V52H28V28Z" fill="white"/>
</mask>
<g mask="url(#mask0_7225_7384)">
<path d="M51.4996 34.5061C51.3637 34.0213 51.099 33.5824 50.7336 33.2361C50.3579 32.8791 49.8974 32.6237 49.3956 32.4941C47.5176 31.9991 39.9936 31.9991 39.9936 31.9991C36.857 31.9634 33.7211 32.1204 30.6036 32.4691C30.1018 32.6083 29.6422 32.8694 29.2656 33.2291C28.8956 33.5851 28.6276 34.0241 28.4876 34.5051C28.1513 36.3168 27.9879 38.1564 27.9996 39.9991C27.9876 41.8401 28.1506 43.6791 28.4876 45.4931C28.6246 45.9721 28.8916 46.4091 29.2626 46.7621C29.6336 47.1151 30.0956 47.3701 30.6036 47.5051C32.5066 47.9991 39.9936 47.9991 39.9936 47.9991C43.1343 48.0348 46.2742 47.8779 49.3956 47.5291C49.8974 47.3995 50.3579 47.1441 50.7336 46.7871C51.0989 46.4408 51.3633 46.0019 51.4986 45.5171C51.8437 43.7061 52.0115 41.8657 51.9996 40.0221C52.0256 38.1707 51.858 36.3227 51.4996 34.5061ZM37.6016 43.4231V36.5761L43.8616 40.0001L37.6016 43.4231Z" fill="white"/>
</g>
</g>
<defs>
<filter id="filter0_f_7225_7384" x="0.6" y="0.6" width="78.8" height="78.8" filterUnits="userSpaceOnUse" color-interpolation-filters="sRGB">
<feFlood flood-opacity="0" result="BackgroundImageFix"/>
<feBlend mode="normal" in="SourceGraphic" in2="BackgroundImageFix" result="shape"/>
<feGaussianBlur stdDeviation="11.2" result="effect1_foregroundBlur_7225_7384"/>
</filter>
<clipPath id="clip0_7225_7384">
<rect width="24" height="24" fill="white" transform="translate(28 28)"/>
</clipPath>
</defs>
</svg>
