<svg width="545.2850219726562px" height="173.6px" xmlns="http://www.w3.org/2000/svg" viewBox="-22.64251098632809 -11.799999999999997 545.2850219726562 173.6" style="background:#051103" preserveAspectRatio="xMidYMid"><defs><linearGradient id="editing-glowing-gradient" x1="0.8146601955249186" x2="0.18533980447508142" y1="0.8885729807284856" y2="0.11142701927151444"><stop offset="0" stop-color="#67ff43"></stop><stop offset="1" stop-color="#90ffff"></stop></linearGradient><filter id="editing-glowing" x="-100%" y="-100%" width="300%" height="300%"><feGaussianBlur in="SourceGraphic" result="blur" stdDeviation="10"></feGaussianBlur><feMerge><feMergeNode in="blur"></feMergeNode><feMergeNode in="SourceGraphic"></feMergeNode></feMerge></filter></defs><g filter="url(#editing-glowing)"><g transform="translate(56.82502168416977, 109.04500198364258)"><path d="M22.16 0.24L22.16 0.24L22.16 0.24Q16.98-0.68 14.26-1.07L14.26-1.07L14.26-1.07Q11.54-1.46 8.68-1.46L8.68-1.46L8.68-1.46Q5.82-1.46 4.37 0L4.37 0L4.37 0Q2.13-1.65 0.97-6.89L0.97-6.89L0.97-6.89Q0.58-8.34 0.58-10.77L0.58-10.77L0.58-10.77Q0.58-16.00 6.60-21.15L6.60-21.15L36.86-45.98L36.86-45.98Q24.35-48.02 19.30-48.02L19.30-48.02L19.30-48.02Q14.26-48.02 9.60-45.78L9.60-45.78L9.60-45.78Q6.98-50.05 6.98-55.00L6.98-55.00L6.98-55.00Q6.98-59.95 10.62-62.47L10.62-62.47L10.62-62.47Q14.26-64.99 20.37-64.99L20.37-64.99L20.37-64.99Q23.09-64.99 26.00-64.60L26.00-64.60L26.00-64.60Q28.91-64.21 31.82-63.83L31.82-63.83L37.54-62.95L37.54-62.95Q40.35-62.57 43.99-62.57L43.99-62.57L43.99-62.57Q47.63-62.57 51.70-63.54L51.70-63.54L51.70-63.54Q55.58-60.14 55.58-54.51L55.58-54.51L55.58-54.51Q55.58-47.72 50.93-44.04L50.93-44.04L17.95-17.65L17.95-17.65Q25.03-15.71 36.76-15.71L36.76-15.71L36.76-15.71Q42.58-15.71 46.27-18.62L46.27-18.62L46.27-18.62Q47.92-16.49 48.35-14.70L48.35-14.70L48.35-14.70Q48.79-12.90 48.79-10.33L48.79-10.33L48.79-10.33Q48.79-7.76 47.92-5.67L47.92-5.67L47.92-5.67Q47.05-3.59 45.20-2.04L45.20-2.04L45.20-2.04Q41.52 1.16 33.37 1.16L33.37 1.16L33.37 1.16Q27.35 1.16 22.16 0.24ZM99.04-14.94L99.04-14.94L99.04-14.94Q100.88-12.61 100.88-8.83L100.88-8.83L100.88-8.83Q100.88-3.59 97-0.82L97-0.82L97-0.82Q93.12 1.94 87.01 1.94L87.01 1.94L87.01 1.94Q83.52 1.94 78.18 1.16L78.18 1.16L78.18 1.16Q67.71-0.48 64.50-0.48L64.50-0.48L64.50-0.48Q61.30-0.48 60.04-0.34L60.04-0.34L60.04-0.34Q58.78-0.19 56.75 0L56.75 0L68.68-64.02L110.48-64.02L110.48-64.02Q110.48-58.10 107.62-55.00L107.62-55.00L107.62-55.00Q104.76-51.90 99.13-51.90L99.13-51.90L99.13-51.90Q93.51-51.90 87.78-54.51L87.78-54.51L84.78-37.54L102.04-37.54L102.04-37.54Q102.04-32.40 99.52-29.54L99.52-29.54L99.52-29.54Q97-26.68 92.78-26.68L92.78-26.68L92.78-26.68Q88.56-26.68 85.94-27.64L85.94-27.64L85.94-27.64Q83.32-28.62 83.03-28.91L83.03-28.91L79.54-10.57L79.54-10.57Q81.87-10.28 86.23-10.28L86.23-10.28L86.23-10.28Q93.70-10.28 99.04-14.94ZM119.80 0L109.13 0L120.77-64.02L141.62-64.02L156.75-19.98L164.80-64.02L175.57-63.92L163.74 0L141.52 0L127.56-42.39L119.80 0ZM185.75-47.24L185.75-47.24L185.75-47.24Q182.46-49.76 182.46-55.14L182.46-55.14L182.46-55.14Q182.46-60.53 186.00-63.34L186.00-63.34L186.00-63.34Q189.54-66.15 195.65-66.15L195.65-66.15L195.65-66.15Q199.53-66.15 208.74-64.80L208.74-64.80L215.34-63.83L215.34-63.83Q218.64-63.44 222.08-63.44L222.08-63.44L222.08-63.44Q225.53-63.44 227.85-64.89L227.85-64.89L227.85-64.89Q231.34-61.79 231.34-57.33L231.34-57.33L231.34-57.33Q231.34-52.87 227.37-49.66L227.37-49.66L227.37-49.66Q223.29-46.27 218.06-46.27L218.06-46.27L218.06-46.27Q215.53-46.27 211.46-46.95L211.46-46.95L211.46-46.95Q206.71-32.01 206.71-21.63L206.71-21.63L206.71-21.63Q206.71-11.25 211.94-5.82L211.94-5.82L211.94-5.82Q209.52-1.46 205.93 0.24L205.93 0.24L205.93 0.24Q202.34 1.94 196.96 1.94L196.96 1.94L196.96 1.94Q191.58 1.94 188.23-1.02L188.23-1.02L188.23-1.02Q184.88-3.98 184.88-10.09L184.88-10.09L184.88-10.09Q184.88-17.17 188.76-28.81L188.76-28.81L188.76-28.81Q192.64-40.35 198.46-49.18L198.46-49.18L198.46-49.18Q195.65-49.47 192.74-49.47L192.74-49.47L192.74-49.47Q186.72-49.47 185.75-47.24ZM248.13 0L227.37 0L239.20-63.73L239.20-63.73Q248.81-64.80 262.82-64.80L262.82-64.80L262.82-64.80Q276.84-64.80 283.34-60.72L283.34-60.72L283.34-60.72Q289.84-56.65 289.84-48.45L289.84-48.45L289.84-48.45Q289.84-40.26 285.62-35.11L285.62-35.11L285.62-35.11Q281.40-29.97 274.12-28.32L274.12-28.32L274.12-28.32Q275.77-20.27 279.55-13.77L279.55-13.77L279.55-13.77Q283.05-7.66 287.12-5.72L287.12-5.72L287.12-5.72Q285.67-1.65 282.71 0.15L282.71 0.15L282.71 0.15Q279.75 1.94 275.53 1.94L275.53 1.94L275.53 1.94Q271.31 1.94 268.01-0.53L268.01-0.53L268.01-0.53Q264.71-3.01 262.09-7.57L262.09-7.57L262.09-7.57Q256.56-17.46 255.98-33.08L255.98-33.08L256.66-33.08L256.66-33.08Q263.84-33.27 267.43-37.01L267.43-37.01L267.43-37.01Q271.02-40.74 271.02-48.60L271.02-48.60L271.02-48.60Q271.02-58.39 262.77-58.78L262.77-58.78L260.64-58.78L260.64-58.78Q259.77-58.78 259.28-58.69L259.28-58.69L248.13 0ZM336.88 1.94L336.88 1.94L336.88 1.94Q324.47 1.94 323.30-15.71L323.30-15.71L306.62-15.71L306.62-15.71Q304.68-11.25 303.32-7.37L303.32-7.37L300.80 0L287.22 0L317.77-64.02L338.63-64.02L342.70-16.88L342.70-16.88Q343.67-6.69 347.55-3.69L347.55-3.69L347.55-3.69Q344.74 1.94 336.88 1.94ZM314.96-35.11L309.62-22.80L323.01-22.80L321.85-47.72L321.85-50.34L314.96-35.11ZM373.26 0L352.11 0L364.43-64.02L385.77-64.02L373.26 0Z" fill="url(#editing-glowing-gradient)"></path></g></g><style>text {
  font-size: 64px;
  font-family: Arial Black;
  dominant-baseline: central;
  text-anchor: middle;
}</style></svg>